<mxfile host="app.diagrams.net" modified="2024-01-19T22:30:01.000Z" agent="Mozilla/5.0 (Windows NT 10.0; Win64; x64) AppleWebKit/537.36 (KHTML, like Gecko) Chrome/120.0.0.0 Safari/537.36 OPR/106.0.0.0 (Edition ASUS)" etag="rD7ZI_FbYyjNI1NprCcb" version="22.1.21" type="device">
  <diagram name="Page-1" id="EepRhKMx3GIMpfN6804e">
    <mxGraphModel dx="1767" dy="1593" grid="1" gridSize="10" guides="1" tooltips="1" connect="1" arrows="1" fold="1" page="1" pageScale="1" pageWidth="850" pageHeight="1100" math="0" shadow="0">
      <root>
        <mxCell id="0" />
        <mxCell id="1" parent="0" />
        <mxCell id="QWKgwdVcQz7tTL6UJiQV-32" value="" style="rounded=0;whiteSpace=wrap;html=1;" vertex="1" parent="1">
          <mxGeometry x="-30" y="-170" width="1140" height="1200" as="geometry" />
        </mxCell>
        <mxCell id="5Jb5sNXRF2i15nNms9Eh-25" value="" style="rounded=0;whiteSpace=wrap;html=1;strokeWidth=2;" parent="1" vertex="1">
          <mxGeometry x="30" y="-100" width="1020" height="1050" as="geometry" />
        </mxCell>
        <mxCell id="RCRUoKwpYmdssTYRI9oz-1" value="Manufacturer" style="swimlane;fontStyle=1;align=center;verticalAlign=top;childLayout=stackLayout;horizontal=1;startSize=26;horizontalStack=0;resizeParent=1;resizeParentMax=0;resizeLast=0;collapsible=1;marginBottom=0;whiteSpace=wrap;html=1;fillColor=#bac8d3;strokeColor=#23445d;" parent="1" vertex="1">
          <mxGeometry x="105" y="60" width="210" height="260" as="geometry" />
        </mxCell>
        <mxCell id="RCRUoKwpYmdssTYRI9oz-2" value="+ publicKey: bytes [ ]&amp;nbsp;&lt;br style=&quot;border-color: var(--border-color);&quot;&gt;-&amp;nbsp; privateKey: bytes [ ]&amp;nbsp;&lt;br style=&quot;border-color: var(--border-color);&quot;&gt;+ walletAddress : bytes [ ]&lt;br style=&quot;border-color: var(--border-color);&quot;&gt;+ email : String&lt;br style=&quot;border-color: var(--border-color);&quot;&gt;- password : String&lt;br style=&quot;border-color: var(--border-color);&quot;&gt;+ Id : int&lt;br style=&quot;border-color: var(--border-color);&quot;&gt;+ name : String" style="text;strokeColor=none;fillColor=none;align=left;verticalAlign=top;spacingLeft=4;spacingRight=4;overflow=hidden;rotatable=0;points=[[0,0.5],[1,0.5]];portConstraint=eastwest;whiteSpace=wrap;html=1;" parent="RCRUoKwpYmdssTYRI9oz-1" vertex="1">
          <mxGeometry y="26" width="210" height="124" as="geometry" />
        </mxCell>
        <mxCell id="RCRUoKwpYmdssTYRI9oz-3" value="" style="line;strokeWidth=1;fillColor=none;align=left;verticalAlign=middle;spacingTop=-1;spacingLeft=3;spacingRight=3;rotatable=0;labelPosition=right;points=[];portConstraint=eastwest;strokeColor=inherit;" parent="RCRUoKwpYmdssTYRI9oz-1" vertex="1">
          <mxGeometry y="150" width="210" height="8" as="geometry" />
        </mxCell>
        <mxCell id="RCRUoKwpYmdssTYRI9oz-4" value="+&amp;nbsp;Register()&lt;br&gt;+ SetBatchId()&lt;br&gt;+ InputRFIDData()&lt;br&gt;+&amp;nbsp;AccessDashboard()&lt;br&gt;+&amp;nbsp;AccessRFIDInformation()&lt;br&gt;+&amp;nbsp;AccessTemperatureData()" style="text;strokeColor=none;fillColor=none;align=left;verticalAlign=top;spacingLeft=4;spacingRight=4;overflow=hidden;rotatable=0;points=[[0,0.5],[1,0.5]];portConstraint=eastwest;whiteSpace=wrap;html=1;" parent="RCRUoKwpYmdssTYRI9oz-1" vertex="1">
          <mxGeometry y="158" width="210" height="102" as="geometry" />
        </mxCell>
        <mxCell id="RCRUoKwpYmdssTYRI9oz-5" value="Distributor" style="swimlane;fontStyle=1;align=center;verticalAlign=top;childLayout=stackLayout;horizontal=1;startSize=26;horizontalStack=0;resizeParent=1;resizeParentMax=0;resizeLast=0;collapsible=1;marginBottom=0;whiteSpace=wrap;html=1;fillColor=#bac8d3;strokeColor=#23445d;" parent="1" vertex="1">
          <mxGeometry x="110" y="342" width="210" height="250" as="geometry" />
        </mxCell>
        <mxCell id="RCRUoKwpYmdssTYRI9oz-6" value="+ publicKey: bytes [ ]&amp;nbsp;&lt;br style=&quot;border-color: var(--border-color);&quot;&gt;-&amp;nbsp; privateKey: bytes [ ]&amp;nbsp;&lt;br style=&quot;border-color: var(--border-color);&quot;&gt;+ walletAddress : bytes [ ]&lt;br style=&quot;border-color: var(--border-color);&quot;&gt;+ email : String&lt;br style=&quot;border-color: var(--border-color);&quot;&gt;-&amp;nbsp; password : String&lt;br style=&quot;border-color: var(--border-color);&quot;&gt;+ Id : int&lt;br style=&quot;border-color: var(--border-color);&quot;&gt;+ name : String" style="text;strokeColor=none;fillColor=none;align=left;verticalAlign=top;spacingLeft=4;spacingRight=4;overflow=hidden;rotatable=0;points=[[0,0.5],[1,0.5]];portConstraint=eastwest;whiteSpace=wrap;html=1;" parent="RCRUoKwpYmdssTYRI9oz-5" vertex="1">
          <mxGeometry y="26" width="210" height="124" as="geometry" />
        </mxCell>
        <mxCell id="RCRUoKwpYmdssTYRI9oz-7" value="" style="line;strokeWidth=1;fillColor=none;align=left;verticalAlign=middle;spacingTop=-1;spacingLeft=3;spacingRight=3;rotatable=0;labelPosition=right;points=[];portConstraint=eastwest;strokeColor=inherit;" parent="RCRUoKwpYmdssTYRI9oz-5" vertex="1">
          <mxGeometry y="150" width="210" height="8" as="geometry" />
        </mxCell>
        <mxCell id="RCRUoKwpYmdssTYRI9oz-8" value="+ Register()&amp;nbsp;&lt;br&gt;+&amp;nbsp;AccessDashboard()&lt;br&gt;+&amp;nbsp;TrackShipment()&lt;br&gt;+ GetNotification()&lt;br&gt;+AccessRFIDInformation()" style="text;strokeColor=none;fillColor=none;align=left;verticalAlign=top;spacingLeft=4;spacingRight=4;overflow=hidden;rotatable=0;points=[[0,0.5],[1,0.5]];portConstraint=eastwest;whiteSpace=wrap;html=1;" parent="RCRUoKwpYmdssTYRI9oz-5" vertex="1">
          <mxGeometry y="158" width="210" height="92" as="geometry" />
        </mxCell>
        <mxCell id="RCRUoKwpYmdssTYRI9oz-12" value="System Administrator" style="swimlane;fontStyle=1;align=center;verticalAlign=top;childLayout=stackLayout;horizontal=1;startSize=26;horizontalStack=0;resizeParent=1;resizeParentMax=0;resizeLast=0;collapsible=1;marginBottom=0;whiteSpace=wrap;html=1;fillColor=#bac8d3;strokeColor=#23445d;" parent="1" vertex="1">
          <mxGeometry x="810" y="330" width="180" height="260" as="geometry" />
        </mxCell>
        <mxCell id="RCRUoKwpYmdssTYRI9oz-13" value="+ publicKey: bytes [ ]&amp;nbsp;&lt;br style=&quot;border-color: var(--border-color);&quot;&gt;&amp;nbsp;- privateKey: bytes [ ]&amp;nbsp;&lt;br style=&quot;border-color: var(--border-color);&quot;&gt;+ walletAddress : bytes [ ]&lt;br style=&quot;border-color: var(--border-color);&quot;&gt;+ email : String&lt;br style=&quot;border-color: var(--border-color);&quot;&gt;- Password : String&lt;br style=&quot;border-color: var(--border-color);&quot;&gt;+ Id : int&lt;br style=&quot;border-color: var(--border-color);&quot;&gt;+ name : String" style="text;strokeColor=none;fillColor=none;align=left;verticalAlign=top;spacingLeft=4;spacingRight=4;overflow=hidden;rotatable=0;points=[[0,0.5],[1,0.5]];portConstraint=eastwest;whiteSpace=wrap;html=1;" parent="RCRUoKwpYmdssTYRI9oz-12" vertex="1">
          <mxGeometry y="26" width="180" height="114" as="geometry" />
        </mxCell>
        <mxCell id="RCRUoKwpYmdssTYRI9oz-14" value="" style="line;strokeWidth=1;fillColor=none;align=left;verticalAlign=middle;spacingTop=-1;spacingLeft=3;spacingRight=3;rotatable=0;labelPosition=right;points=[];portConstraint=eastwest;strokeColor=inherit;" parent="RCRUoKwpYmdssTYRI9oz-12" vertex="1">
          <mxGeometry y="140" width="180" height="8" as="geometry" />
        </mxCell>
        <mxCell id="RCRUoKwpYmdssTYRI9oz-15" value="+ GetuserAccounts()&lt;br style=&quot;border-color: var(--border-color);&quot;&gt;+&amp;nbsp;AccessDashboard()&lt;br style=&quot;border-color: var(--border-color);&quot;&gt;+&amp;nbsp;TrackShipment()&lt;br style=&quot;border-color: var(--border-color);&quot;&gt;+ getNotification()&lt;br style=&quot;border-color: var(--border-color);&quot;&gt;+AccessRFIDInformation()" style="text;strokeColor=none;fillColor=none;align=left;verticalAlign=top;spacingLeft=4;spacingRight=4;overflow=hidden;rotatable=0;points=[[0,0.5],[1,0.5]];portConstraint=eastwest;whiteSpace=wrap;html=1;" parent="RCRUoKwpYmdssTYRI9oz-12" vertex="1">
          <mxGeometry y="148" width="180" height="112" as="geometry" />
        </mxCell>
        <mxCell id="RCRUoKwpYmdssTYRI9oz-16" value="Security Personnel" style="swimlane;fontStyle=1;align=center;verticalAlign=top;childLayout=stackLayout;horizontal=1;startSize=26;horizontalStack=0;resizeParent=1;resizeParentMax=0;resizeLast=0;collapsible=1;marginBottom=0;whiteSpace=wrap;html=1;fillColor=#bac8d3;strokeColor=#23445d;" parent="1" vertex="1">
          <mxGeometry x="810" y="40" width="180" height="232" as="geometry" />
        </mxCell>
        <mxCell id="RCRUoKwpYmdssTYRI9oz-17" value="+ publicKey: bytes [ ]&amp;nbsp;&lt;br style=&quot;border-color: var(--border-color);&quot;&gt;&amp;nbsp;- privateKey: bytes [ ]&amp;nbsp;&lt;br style=&quot;border-color: var(--border-color);&quot;&gt;+ walletAddress : bytes [ ]&lt;br style=&quot;border-color: var(--border-color);&quot;&gt;+ email : String&lt;br style=&quot;border-color: var(--border-color);&quot;&gt;- Password : String&lt;br style=&quot;border-color: var(--border-color);&quot;&gt;+ Id : int&lt;br style=&quot;border-color: var(--border-color);&quot;&gt;+ name : String" style="text;strokeColor=none;fillColor=none;align=left;verticalAlign=top;spacingLeft=4;spacingRight=4;overflow=hidden;rotatable=0;points=[[0,0.5],[1,0.5]];portConstraint=eastwest;whiteSpace=wrap;html=1;" parent="RCRUoKwpYmdssTYRI9oz-16" vertex="1">
          <mxGeometry y="26" width="180" height="114" as="geometry" />
        </mxCell>
        <mxCell id="RCRUoKwpYmdssTYRI9oz-18" value="" style="line;strokeWidth=1;fillColor=none;align=left;verticalAlign=middle;spacingTop=-1;spacingLeft=3;spacingRight=3;rotatable=0;labelPosition=right;points=[];portConstraint=eastwest;strokeColor=inherit;" parent="RCRUoKwpYmdssTYRI9oz-16" vertex="1">
          <mxGeometry y="140" width="180" height="8" as="geometry" />
        </mxCell>
        <mxCell id="RCRUoKwpYmdssTYRI9oz-19" value="+&amp;nbsp;Register()&lt;br style=&quot;border-color: var(--border-color);&quot;&gt;+&amp;nbsp;AccessDashboard()&lt;br style=&quot;border-color: var(--border-color);&quot;&gt;+&amp;nbsp;AccessRFIDInformation()&lt;br style=&quot;border-color: var(--border-color);&quot;&gt;+&amp;nbsp;AccessTemperatureData()" style="text;strokeColor=none;fillColor=none;align=left;verticalAlign=top;spacingLeft=4;spacingRight=4;overflow=hidden;rotatable=0;points=[[0,0.5],[1,0.5]];portConstraint=eastwest;whiteSpace=wrap;html=1;" parent="RCRUoKwpYmdssTYRI9oz-16" vertex="1">
          <mxGeometry y="148" width="180" height="84" as="geometry" />
        </mxCell>
        <mxCell id="RCRUoKwpYmdssTYRI9oz-20" value="Wallet" style="swimlane;fontStyle=1;align=center;verticalAlign=top;childLayout=stackLayout;horizontal=1;startSize=26;horizontalStack=0;resizeParent=1;resizeParentMax=0;resizeLast=0;collapsible=1;marginBottom=0;whiteSpace=wrap;html=1;fillColor=#bac8d3;strokeColor=#23445d;" parent="1" vertex="1">
          <mxGeometry x="470" y="-20" width="160" height="160" as="geometry" />
        </mxCell>
        <mxCell id="RCRUoKwpYmdssTYRI9oz-21" value="+ address: bytes [ ]&amp;nbsp;&lt;br&gt;+ publicKey : bytes [ ]&amp;nbsp;&lt;br&gt;- privateKEy :bytes [ ]&amp;nbsp;" style="text;strokeColor=none;fillColor=none;align=left;verticalAlign=top;spacingLeft=4;spacingRight=4;overflow=hidden;rotatable=0;points=[[0,0.5],[1,0.5]];portConstraint=eastwest;whiteSpace=wrap;html=1;" parent="RCRUoKwpYmdssTYRI9oz-20" vertex="1">
          <mxGeometry y="26" width="160" height="54" as="geometry" />
        </mxCell>
        <mxCell id="RCRUoKwpYmdssTYRI9oz-22" value="" style="line;strokeWidth=1;fillColor=none;align=left;verticalAlign=middle;spacingTop=-1;spacingLeft=3;spacingRight=3;rotatable=0;labelPosition=right;points=[];portConstraint=eastwest;strokeColor=inherit;" parent="RCRUoKwpYmdssTYRI9oz-20" vertex="1">
          <mxGeometry y="80" width="160" height="8" as="geometry" />
        </mxCell>
        <mxCell id="RCRUoKwpYmdssTYRI9oz-23" value="+ Authorization ()&lt;br&gt;+ SignTransection ()" style="text;strokeColor=none;fillColor=none;align=left;verticalAlign=top;spacingLeft=4;spacingRight=4;overflow=hidden;rotatable=0;points=[[0,0.5],[1,0.5]];portConstraint=eastwest;whiteSpace=wrap;html=1;" parent="RCRUoKwpYmdssTYRI9oz-20" vertex="1">
          <mxGeometry y="88" width="160" height="72" as="geometry" />
        </mxCell>
        <mxCell id="5Jb5sNXRF2i15nNms9Eh-12" style="edgeStyle=orthogonalEdgeStyle;rounded=0;orthogonalLoop=1;jettySize=auto;html=1;exitX=0.5;exitY=0;exitDx=0;exitDy=0;endArrow=none;endFill=0;" parent="1" source="RCRUoKwpYmdssTYRI9oz-24" edge="1">
          <mxGeometry relative="1" as="geometry">
            <mxPoint x="560" y="440" as="targetPoint" />
            <Array as="points">
              <mxPoint x="560" y="440" />
              <mxPoint x="559" y="440" />
            </Array>
          </mxGeometry>
        </mxCell>
        <mxCell id="RCRUoKwpYmdssTYRI9oz-24" value="Consumer" style="swimlane;fontStyle=1;align=center;verticalAlign=top;childLayout=stackLayout;horizontal=1;startSize=26;horizontalStack=0;resizeParent=1;resizeParentMax=0;resizeLast=0;collapsible=1;marginBottom=0;whiteSpace=wrap;html=1;fillColor=#bac8d3;strokeColor=#23445d;" parent="1" vertex="1">
          <mxGeometry x="455" y="650" width="210" height="120" as="geometry" />
        </mxCell>
        <mxCell id="RCRUoKwpYmdssTYRI9oz-26" value="" style="line;strokeWidth=1;fillColor=none;align=left;verticalAlign=middle;spacingTop=-1;spacingLeft=3;spacingRight=3;rotatable=0;labelPosition=right;points=[];portConstraint=eastwest;strokeColor=inherit;" parent="RCRUoKwpYmdssTYRI9oz-24" vertex="1">
          <mxGeometry y="26" width="210" height="8" as="geometry" />
        </mxCell>
        <mxCell id="RCRUoKwpYmdssTYRI9oz-27" value="+&amp;nbsp;AccessDashboard()&lt;br&gt;+&amp;nbsp;ScanQRCode()&lt;br&gt;+&amp;nbsp;DisplayMedicineInfo()&lt;br&gt;+ isMedOrignal()" style="text;strokeColor=none;fillColor=none;align=left;verticalAlign=top;spacingLeft=4;spacingRight=4;overflow=hidden;rotatable=0;points=[[0,0.5],[1,0.5]];portConstraint=eastwest;whiteSpace=wrap;html=1;" parent="RCRUoKwpYmdssTYRI9oz-24" vertex="1">
          <mxGeometry y="34" width="210" height="86" as="geometry" />
        </mxCell>
        <mxCell id="RCRUoKwpYmdssTYRI9oz-28" value="Provider" style="swimlane;fontStyle=1;align=center;verticalAlign=top;childLayout=stackLayout;horizontal=1;startSize=26;horizontalStack=0;resizeParent=1;resizeParentMax=0;resizeLast=0;collapsible=1;marginBottom=0;whiteSpace=wrap;html=1;fillColor=#bac8d3;strokeColor=#23445d;" parent="1" vertex="1">
          <mxGeometry x="110" y="634" width="210" height="240" as="geometry" />
        </mxCell>
        <mxCell id="RCRUoKwpYmdssTYRI9oz-29" value="+ publicKey: bytes [ ]&amp;nbsp;&lt;br style=&quot;border-color: var(--border-color);&quot;&gt;-&amp;nbsp; privateKey: bytes [ ]&amp;nbsp;&lt;br style=&quot;border-color: var(--border-color);&quot;&gt;+ walletAddress : bytes [ ]&lt;br style=&quot;border-color: var(--border-color);&quot;&gt;+ email : String&lt;br style=&quot;border-color: var(--border-color);&quot;&gt;-&amp;nbsp; password : String&lt;br style=&quot;border-color: var(--border-color);&quot;&gt;+ Id : int&lt;br style=&quot;border-color: var(--border-color);&quot;&gt;+ name : String" style="text;strokeColor=none;fillColor=none;align=left;verticalAlign=top;spacingLeft=4;spacingRight=4;overflow=hidden;rotatable=0;points=[[0,0.5],[1,0.5]];portConstraint=eastwest;whiteSpace=wrap;html=1;" parent="RCRUoKwpYmdssTYRI9oz-28" vertex="1">
          <mxGeometry y="26" width="210" height="114" as="geometry" />
        </mxCell>
        <mxCell id="RCRUoKwpYmdssTYRI9oz-30" value="" style="line;strokeWidth=1;fillColor=none;align=left;verticalAlign=middle;spacingTop=-1;spacingLeft=3;spacingRight=3;rotatable=0;labelPosition=right;points=[];portConstraint=eastwest;strokeColor=inherit;" parent="RCRUoKwpYmdssTYRI9oz-28" vertex="1">
          <mxGeometry y="140" width="210" height="8" as="geometry" />
        </mxCell>
        <mxCell id="RCRUoKwpYmdssTYRI9oz-31" value="+&amp;nbsp;Register()&lt;br&gt;+&amp;nbsp;AccessDashboard()&lt;br&gt;+&amp;nbsp;CheckMedicineAvailability()&lt;br&gt;+&amp;nbsp;PlaceOrder()&lt;br&gt;+&amp;nbsp;AccessRFIDInformation()" style="text;strokeColor=none;fillColor=none;align=left;verticalAlign=top;spacingLeft=4;spacingRight=4;overflow=hidden;rotatable=0;points=[[0,0.5],[1,0.5]];portConstraint=eastwest;whiteSpace=wrap;html=1;" parent="RCRUoKwpYmdssTYRI9oz-28" vertex="1">
          <mxGeometry y="148" width="210" height="92" as="geometry" />
        </mxCell>
        <mxCell id="RCRUoKwpYmdssTYRI9oz-32" value="Regulatory Authority" style="swimlane;fontStyle=1;align=center;verticalAlign=top;childLayout=stackLayout;horizontal=1;startSize=26;horizontalStack=0;resizeParent=1;resizeParentMax=0;resizeLast=0;collapsible=1;marginBottom=0;whiteSpace=wrap;html=1;fillColor=#bac8d3;strokeColor=#23445d;" parent="1" vertex="1">
          <mxGeometry x="810" y="634" width="180" height="240" as="geometry" />
        </mxCell>
        <mxCell id="RCRUoKwpYmdssTYRI9oz-33" value="+ publicKey: bytes [ ]&amp;nbsp;&lt;br style=&quot;border-color: var(--border-color);&quot;&gt;&amp;nbsp;- privateKey: bytes [ ]&amp;nbsp;&lt;br style=&quot;border-color: var(--border-color);&quot;&gt;+ walletAddress : bytes [ ]&lt;br style=&quot;border-color: var(--border-color);&quot;&gt;+ email : String&lt;br style=&quot;border-color: var(--border-color);&quot;&gt;- Password : String&lt;br style=&quot;border-color: var(--border-color);&quot;&gt;+ Id : int&lt;br style=&quot;border-color: var(--border-color);&quot;&gt;+ name : String" style="text;strokeColor=none;fillColor=none;align=left;verticalAlign=top;spacingLeft=4;spacingRight=4;overflow=hidden;rotatable=0;points=[[0,0.5],[1,0.5]];portConstraint=eastwest;whiteSpace=wrap;html=1;" parent="RCRUoKwpYmdssTYRI9oz-32" vertex="1">
          <mxGeometry y="26" width="180" height="124" as="geometry" />
        </mxCell>
        <mxCell id="RCRUoKwpYmdssTYRI9oz-34" value="" style="line;strokeWidth=1;fillColor=none;align=left;verticalAlign=middle;spacingTop=-1;spacingLeft=3;spacingRight=3;rotatable=0;labelPosition=right;points=[];portConstraint=eastwest;strokeColor=inherit;" parent="RCRUoKwpYmdssTYRI9oz-32" vertex="1">
          <mxGeometry y="150" width="180" height="8" as="geometry" />
        </mxCell>
        <mxCell id="RCRUoKwpYmdssTYRI9oz-35" value="+&amp;nbsp;Register()&lt;br style=&quot;border-color: var(--border-color);&quot;&gt;+&amp;nbsp;AccessDashboard()&lt;br style=&quot;border-color: var(--border-color);&quot;&gt;+&amp;nbsp;AccessRFIDInformation()&lt;br style=&quot;border-color: var(--border-color);&quot;&gt;+&amp;nbsp;AccessTemperatureData()" style="text;strokeColor=none;fillColor=none;align=left;verticalAlign=top;spacingLeft=4;spacingRight=4;overflow=hidden;rotatable=0;points=[[0,0.5],[1,0.5]];portConstraint=eastwest;whiteSpace=wrap;html=1;" parent="RCRUoKwpYmdssTYRI9oz-32" vertex="1">
          <mxGeometry y="158" width="180" height="82" as="geometry" />
        </mxCell>
        <mxCell id="RCRUoKwpYmdssTYRI9oz-36" value="Medicine" style="swimlane;fontStyle=1;align=center;verticalAlign=top;childLayout=stackLayout;horizontal=1;startSize=26;horizontalStack=0;resizeParent=1;resizeParentMax=0;resizeLast=0;collapsible=1;marginBottom=0;whiteSpace=wrap;html=1;fillColor=#bac8d3;strokeColor=#23445d;" parent="1" vertex="1">
          <mxGeometry x="455" y="280" width="190" height="158" as="geometry" />
        </mxCell>
        <mxCell id="RCRUoKwpYmdssTYRI9oz-37" value="+&amp;nbsp;batchID: int&lt;br&gt;+&amp;nbsp;productName: String&lt;br&gt;+&amp;nbsp;productionDate : int&lt;br&gt;+&amp;nbsp;expirationDate: int&lt;br&gt;+&amp;nbsp;temperatureSensitive: bool&lt;br&gt;+&amp;nbsp;RFIDData: int&lt;br&gt;+&amp;nbsp;recallStatus : bool" style="text;strokeColor=none;fillColor=none;align=left;verticalAlign=top;spacingLeft=4;spacingRight=4;overflow=hidden;rotatable=0;points=[[0,0.5],[1,0.5]];portConstraint=eastwest;whiteSpace=wrap;html=1;" parent="RCRUoKwpYmdssTYRI9oz-36" vertex="1">
          <mxGeometry y="26" width="190" height="124" as="geometry" />
        </mxCell>
        <mxCell id="RCRUoKwpYmdssTYRI9oz-38" value="" style="line;strokeWidth=1;fillColor=none;align=left;verticalAlign=middle;spacingTop=-1;spacingLeft=3;spacingRight=3;rotatable=0;labelPosition=right;points=[];portConstraint=eastwest;strokeColor=inherit;" parent="RCRUoKwpYmdssTYRI9oz-36" vertex="1">
          <mxGeometry y="150" width="190" height="8" as="geometry" />
        </mxCell>
        <mxCell id="5Jb5sNXRF2i15nNms9Eh-7" style="edgeStyle=orthogonalEdgeStyle;rounded=0;orthogonalLoop=1;jettySize=auto;html=1;endArrow=none;endFill=0;exitX=0;exitY=0.5;exitDx=0;exitDy=0;entryX=0.607;entryY=-0.011;entryDx=0;entryDy=0;entryPerimeter=0;" parent="1" source="RCRUoKwpYmdssTYRI9oz-19" target="RCRUoKwpYmdssTYRI9oz-36" edge="1">
          <mxGeometry relative="1" as="geometry">
            <mxPoint x="900" y="280" as="sourcePoint" />
            <Array as="points">
              <mxPoint x="570" y="230" />
              <mxPoint x="570" y="280" />
              <mxPoint x="570" y="280" />
            </Array>
          </mxGeometry>
        </mxCell>
        <mxCell id="5Jb5sNXRF2i15nNms9Eh-9" style="edgeStyle=orthogonalEdgeStyle;rounded=0;orthogonalLoop=1;jettySize=auto;html=1;exitX=1;exitY=0.5;exitDx=0;exitDy=0;entryX=0.5;entryY=0;entryDx=0;entryDy=0;endArrow=none;endFill=0;" parent="1" source="RCRUoKwpYmdssTYRI9oz-4" target="RCRUoKwpYmdssTYRI9oz-36" edge="1">
          <mxGeometry relative="1" as="geometry">
            <Array as="points">
              <mxPoint x="315" y="230" />
              <mxPoint x="550" y="230" />
            </Array>
          </mxGeometry>
        </mxCell>
        <mxCell id="5Jb5sNXRF2i15nNms9Eh-10" style="edgeStyle=orthogonalEdgeStyle;rounded=0;orthogonalLoop=1;jettySize=auto;html=1;exitX=1;exitY=0.5;exitDx=0;exitDy=0;entryX=0;entryY=0.5;entryDx=0;entryDy=0;endArrow=none;endFill=0;" parent="1" source="RCRUoKwpYmdssTYRI9oz-8" target="RCRUoKwpYmdssTYRI9oz-37" edge="1">
          <mxGeometry relative="1" as="geometry" />
        </mxCell>
        <mxCell id="5Jb5sNXRF2i15nNms9Eh-11" style="edgeStyle=orthogonalEdgeStyle;rounded=0;orthogonalLoop=1;jettySize=auto;html=1;exitX=1;exitY=0.5;exitDx=0;exitDy=0;entryX=-0.001;entryY=0.802;entryDx=0;entryDy=0;entryPerimeter=0;endArrow=none;endFill=0;" parent="1" source="RCRUoKwpYmdssTYRI9oz-31" target="RCRUoKwpYmdssTYRI9oz-37" edge="1">
          <mxGeometry relative="1" as="geometry">
            <mxPoint x="410" y="410" as="targetPoint" />
            <Array as="points">
              <mxPoint x="320" y="760" />
              <mxPoint x="410" y="760" />
              <mxPoint x="410" y="388" />
              <mxPoint x="455" y="388" />
            </Array>
          </mxGeometry>
        </mxCell>
        <mxCell id="5Jb5sNXRF2i15nNms9Eh-14" style="edgeStyle=orthogonalEdgeStyle;rounded=0;orthogonalLoop=1;jettySize=auto;html=1;exitX=0;exitY=0.5;exitDx=0;exitDy=0;entryX=1.005;entryY=0.663;entryDx=0;entryDy=0;entryPerimeter=0;endArrow=none;endFill=0;" parent="1" source="RCRUoKwpYmdssTYRI9oz-13" target="RCRUoKwpYmdssTYRI9oz-37" edge="1">
          <mxGeometry relative="1" as="geometry">
            <Array as="points">
              <mxPoint x="810" y="388" />
            </Array>
          </mxGeometry>
        </mxCell>
        <mxCell id="5Jb5sNXRF2i15nNms9Eh-16" style="edgeStyle=orthogonalEdgeStyle;rounded=0;orthogonalLoop=1;jettySize=auto;html=1;exitX=0.5;exitY=0;exitDx=0;exitDy=0;entryX=0.003;entryY=0.265;entryDx=0;entryDy=0;entryPerimeter=0;endArrow=none;endFill=0;" parent="1" source="RCRUoKwpYmdssTYRI9oz-1" target="RCRUoKwpYmdssTYRI9oz-21" edge="1">
          <mxGeometry relative="1" as="geometry">
            <Array as="points">
              <mxPoint x="210" y="20" />
              <mxPoint x="471" y="20" />
            </Array>
          </mxGeometry>
        </mxCell>
        <mxCell id="5Jb5sNXRF2i15nNms9Eh-17" style="edgeStyle=orthogonalEdgeStyle;rounded=0;orthogonalLoop=1;jettySize=auto;html=1;exitX=0.5;exitY=0;exitDx=0;exitDy=0;entryX=1.011;entryY=0.067;entryDx=0;entryDy=0;entryPerimeter=0;endArrow=none;endFill=0;" parent="1" source="RCRUoKwpYmdssTYRI9oz-16" target="RCRUoKwpYmdssTYRI9oz-21" edge="1">
          <mxGeometry relative="1" as="geometry" />
        </mxCell>
        <mxCell id="5Jb5sNXRF2i15nNms9Eh-19" style="edgeStyle=orthogonalEdgeStyle;rounded=0;orthogonalLoop=1;jettySize=auto;html=1;entryX=0;entryY=0.5;entryDx=0;entryDy=0;endArrow=none;endFill=0;" parent="1" target="RCRUoKwpYmdssTYRI9oz-21" edge="1">
          <mxGeometry relative="1" as="geometry">
            <Array as="points">
              <mxPoint x="320" y="450" />
              <mxPoint x="370" y="450" />
              <mxPoint x="370" y="40" />
              <mxPoint x="470" y="40" />
            </Array>
            <mxPoint x="320" y="450" as="sourcePoint" />
          </mxGeometry>
        </mxCell>
        <mxCell id="5Jb5sNXRF2i15nNms9Eh-20" style="edgeStyle=orthogonalEdgeStyle;rounded=0;orthogonalLoop=1;jettySize=auto;html=1;exitX=1.002;exitY=0.57;exitDx=0;exitDy=0;endArrow=none;endFill=0;exitPerimeter=0;" parent="1" source="RCRUoKwpYmdssTYRI9oz-29" edge="1">
          <mxGeometry relative="1" as="geometry">
            <Array as="points">
              <mxPoint x="350" y="725" />
              <mxPoint x="350" y="60" />
              <mxPoint x="469" y="60" />
            </Array>
            <mxPoint x="300" y="724.6" as="sourcePoint" />
            <mxPoint x="470" y="60" as="targetPoint" />
          </mxGeometry>
        </mxCell>
        <mxCell id="5Jb5sNXRF2i15nNms9Eh-22" style="edgeStyle=orthogonalEdgeStyle;rounded=0;orthogonalLoop=1;jettySize=auto;html=1;endArrow=none;endFill=0;exitX=-0.006;exitY=0.088;exitDx=0;exitDy=0;exitPerimeter=0;" parent="1" source="RCRUoKwpYmdssTYRI9oz-13" edge="1">
          <mxGeometry relative="1" as="geometry">
            <Array as="points">
              <mxPoint x="770" y="366" />
              <mxPoint x="770" y="40" />
              <mxPoint x="630" y="40" />
            </Array>
            <mxPoint x="810" y="550" as="sourcePoint" />
            <mxPoint x="630" y="30" as="targetPoint" />
          </mxGeometry>
        </mxCell>
        <mxCell id="5Jb5sNXRF2i15nNms9Eh-23" style="edgeStyle=orthogonalEdgeStyle;rounded=0;orthogonalLoop=1;jettySize=auto;html=1;exitX=1;exitY=0;exitDx=0;exitDy=0;endArrow=none;endFill=0;" parent="1" source="QWKgwdVcQz7tTL6UJiQV-29" edge="1">
          <mxGeometry relative="1" as="geometry">
            <Array as="points">
              <mxPoint x="810" y="740" />
              <mxPoint x="750" y="740" />
              <mxPoint x="750" y="60" />
              <mxPoint x="630" y="60" />
            </Array>
            <mxPoint x="630" y="50" as="targetPoint" />
          </mxGeometry>
        </mxCell>
        <mxCell id="QWKgwdVcQz7tTL6UJiQV-3" style="edgeStyle=orthogonalEdgeStyle;rounded=0;orthogonalLoop=1;jettySize=auto;html=1;exitX=0;exitY=0.5;exitDx=0;exitDy=0;entryX=1.005;entryY=0.774;entryDx=0;entryDy=0;entryPerimeter=0;endArrow=none;endFill=0;" edge="1" parent="1" source="RCRUoKwpYmdssTYRI9oz-33" target="RCRUoKwpYmdssTYRI9oz-37">
          <mxGeometry relative="1" as="geometry">
            <Array as="points">
              <mxPoint x="728" y="722" />
              <mxPoint x="728" y="410" />
              <mxPoint x="645" y="410" />
              <mxPoint x="645" y="402" />
            </Array>
          </mxGeometry>
        </mxCell>
        <mxCell id="QWKgwdVcQz7tTL6UJiQV-11" value="&lt;b&gt;&lt;span style=&quot;white-space: pre;&quot;&gt;&#x9;&lt;/span&gt;&amp;nbsp; &amp;nbsp; class &lt;/b&gt;Pharma Chain" style="rounded=0;whiteSpace=wrap;html=1;align=left;fillColor=#f5f5f5;fontColor=#333333;strokeColor=#666666;strokeWidth=2;" vertex="1" parent="1">
          <mxGeometry x="30" y="-100" width="190" height="50" as="geometry" />
        </mxCell>
        <mxCell id="QWKgwdVcQz7tTL6UJiQV-12" value="&lt;b&gt;1..*&lt;/b&gt;" style="text;html=1;strokeColor=none;fillColor=none;align=center;verticalAlign=middle;whiteSpace=wrap;rounded=0;" vertex="1" parent="1">
          <mxGeometry x="200" y="30" width="60" height="30" as="geometry" />
        </mxCell>
        <mxCell id="QWKgwdVcQz7tTL6UJiQV-13" value="&lt;b&gt;1..*&lt;/b&gt;" style="text;html=1;strokeColor=none;fillColor=none;align=center;verticalAlign=middle;whiteSpace=wrap;rounded=0;" vertex="1" parent="1">
          <mxGeometry x="425" y="-10" width="60" height="30" as="geometry" />
        </mxCell>
        <mxCell id="QWKgwdVcQz7tTL6UJiQV-14" value="&lt;b style=&quot;border-color: var(--border-color);&quot;&gt;1..*&lt;/b&gt;" style="text;html=1;strokeColor=none;fillColor=none;align=center;verticalAlign=middle;whiteSpace=wrap;rounded=0;" vertex="1" parent="1">
          <mxGeometry x="425" y="20" width="60" height="30" as="geometry" />
        </mxCell>
        <mxCell id="QWKgwdVcQz7tTL6UJiQV-16" value="&lt;b style=&quot;border-color: var(--border-color);&quot;&gt;1..*&lt;/b&gt;" style="text;html=1;strokeColor=none;fillColor=none;align=center;verticalAlign=middle;whiteSpace=wrap;rounded=0;" vertex="1" parent="1">
          <mxGeometry x="310" y="530" width="60" height="30" as="geometry" />
        </mxCell>
        <mxCell id="QWKgwdVcQz7tTL6UJiQV-17" value="&lt;b style=&quot;border-color: var(--border-color);&quot;&gt;1..*&lt;/b&gt;" style="text;html=1;strokeColor=none;fillColor=none;align=center;verticalAlign=middle;whiteSpace=wrap;rounded=0;" vertex="1" parent="1">
          <mxGeometry x="310" y="720" width="60" height="30" as="geometry" />
        </mxCell>
        <mxCell id="QWKgwdVcQz7tTL6UJiQV-18" value="&lt;b style=&quot;border-color: var(--border-color);&quot;&gt;1..*&lt;/b&gt;" style="text;html=1;strokeColor=none;fillColor=none;align=center;verticalAlign=middle;whiteSpace=wrap;rounded=0;" vertex="1" parent="1">
          <mxGeometry x="890" y="10" width="60" height="30" as="geometry" />
        </mxCell>
        <mxCell id="QWKgwdVcQz7tTL6UJiQV-19" value="&lt;b style=&quot;border-color: var(--border-color);&quot;&gt;1..*&lt;/b&gt;" style="text;html=1;strokeColor=none;fillColor=none;align=center;verticalAlign=middle;whiteSpace=wrap;rounded=0;" vertex="1" parent="1">
          <mxGeometry x="620" y="-20" width="60" height="30" as="geometry" />
        </mxCell>
        <mxCell id="QWKgwdVcQz7tTL6UJiQV-21" value="&lt;b style=&quot;border-color: var(--border-color);&quot;&gt;1..*&lt;/b&gt;" style="text;html=1;strokeColor=none;fillColor=none;align=center;verticalAlign=middle;whiteSpace=wrap;rounded=0;" vertex="1" parent="1">
          <mxGeometry x="760" y="342" width="60" height="30" as="geometry" />
        </mxCell>
        <mxCell id="QWKgwdVcQz7tTL6UJiQV-24" value="n" style="text;html=1;strokeColor=none;fillColor=none;align=center;verticalAlign=middle;whiteSpace=wrap;rounded=0;" vertex="1" parent="1">
          <mxGeometry x="520" y="620" width="60" height="30" as="geometry" />
        </mxCell>
        <mxCell id="QWKgwdVcQz7tTL6UJiQV-25" value="n" style="text;html=1;strokeColor=none;fillColor=none;align=center;verticalAlign=middle;whiteSpace=wrap;rounded=0;" vertex="1" parent="1">
          <mxGeometry x="520" y="430" width="60" height="30" as="geometry" />
        </mxCell>
        <mxCell id="QWKgwdVcQz7tTL6UJiQV-26" value="&lt;b style=&quot;border-color: var(--border-color);&quot;&gt;1..*&lt;/b&gt;" style="text;html=1;strokeColor=none;fillColor=none;align=center;verticalAlign=middle;whiteSpace=wrap;rounded=0;" vertex="1" parent="1">
          <mxGeometry x="425" y="50" width="60" height="30" as="geometry" />
        </mxCell>
        <mxCell id="QWKgwdVcQz7tTL6UJiQV-29" value="&lt;b style=&quot;border-color: var(--border-color);&quot;&gt;1..*&lt;/b&gt;" style="text;html=1;strokeColor=none;fillColor=none;align=center;verticalAlign=middle;whiteSpace=wrap;rounded=0;" vertex="1" parent="1">
          <mxGeometry x="750" y="739" width="60" height="30" as="geometry" />
        </mxCell>
        <mxCell id="QWKgwdVcQz7tTL6UJiQV-30" value="&lt;b style=&quot;border-color: var(--border-color);&quot;&gt;1..*&lt;/b&gt;" style="text;html=1;strokeColor=none;fillColor=none;align=center;verticalAlign=middle;whiteSpace=wrap;rounded=0;" vertex="1" parent="1">
          <mxGeometry x="620" y="10" width="60" height="30" as="geometry" />
        </mxCell>
        <mxCell id="QWKgwdVcQz7tTL6UJiQV-31" value="&lt;b style=&quot;border-color: var(--border-color);&quot;&gt;1..*&lt;/b&gt;" style="text;html=1;strokeColor=none;fillColor=none;align=center;verticalAlign=middle;whiteSpace=wrap;rounded=0;" vertex="1" parent="1">
          <mxGeometry x="620" y="40" width="60" height="30" as="geometry" />
        </mxCell>
      </root>
    </mxGraphModel>
  </diagram>
</mxfile>
